HIERARCHY
ROOT Hips
{
	OFFSET 0.000000 0.000000 0.000000
	CHANNELS 6 Xposition Yposition Zposition Zrotation Yrotation Xrotation 
	JOINT LHipJoint
	{
		OFFSET 0.000000 0.000000 0.000000
		CHANNELS 3 Zrotation Yrotation Xrotation
		JOINT LeftUpLeg
		{
			OFFSET 8.178360 -10.767780 5.035740
			CHANNELS 3 Zrotation Yrotation Xrotation
			JOINT LeftLeg
			{
				OFFSET 14.688660 -40.356780 0.000000
				CHANNELS 3 Zrotation Yrotation Xrotation
				JOINT LeftFoot
				{
					OFFSET 15.373200 -42.237540 0.000000
					CHANNELS 3 Zrotation Yrotation Xrotation
					JOINT LeftToeBase
					{
						OFFSET 0.945840 -2.598660 13.935300
						CHANNELS 3 Zrotation Yrotation Xrotation
						End Site
						{
							OFFSET 0.000000 0.000000 0.000000
						}
					}
				}
			}
		}
	}
	JOINT RHipJoint
	{
		OFFSET 0.000000 0.000000 0.000000
		CHANNELS 3 Zrotation Yrotation Xrotation
		JOINT RightUpLeg
		{
			OFFSET -7.833120 -10.767780 5.035740
			CHANNELS 3 Zrotation Yrotation Xrotation
			JOINT RightLeg
			{
				OFFSET -15.255180 -41.913300 0.000000
				CHANNELS 3 Zrotation Yrotation Xrotation
				JOINT RightFoot
				{
					OFFSET -15.409560 -42.337380 0.000000
					CHANNELS 3 Zrotation Yrotation Xrotation
					JOINT RightToeBase
					{
						OFFSET -0.988380 -2.715540 14.178900
						CHANNELS 3 Zrotation Yrotation Xrotation
						End Site
						{
							OFFSET 0.000000 0.000000 0.000000
						}
					}
				}
			}
		}
	}
	JOINT LowerBack
	{
		OFFSET 0.000000 0.000000 0.000000
		CHANNELS 3 Zrotation Yrotation Xrotation
		JOINT Spine
		{
			OFFSET 0.169620 12.213540 -1.160280
			CHANNELS 3 Zrotation Yrotation Xrotation
			JOINT Spine1
			{
				OFFSET 0.340320 12.293100 -0.256500
				CHANNELS 3 Zrotation Yrotation Xrotation
				JOINT Neck
				{
					OFFSET 0.000000 0.000000 0.000000
					CHANNELS 3 Zrotation Yrotation Xrotation
					JOINT Neck1
					{
						OFFSET -0.325020 10.477440 1.032120
						CHANNELS 3 Zrotation Yrotation Xrotation
						JOINT Head
						{
							OFFSET 0.624420 10.568160 -0.743820
							CHANNELS 3 Zrotation Yrotation Xrotation
							End Site
							{
								OFFSET 0.000000 0.000000 0.000000
							}
						}
					}
				}
				JOINT LeftShoulder
				{
					OFFSET 0.000000 0.000000 0.000000
					CHANNELS 3 Zrotation Yrotation Xrotation
					JOINT LeftArm
					{
						OFFSET 20.174460 7.205340 -1.867260
						CHANNELS 3 Zrotation Yrotation Xrotation
						JOINT LeftForeArm
						{
							OFFSET 29.898000 -0.000000 -0.000000
							CHANNELS 3 Zrotation Yrotation Xrotation
							JOINT LeftHand
							{
								OFFSET 20.901360 -0.000000 -0.000000
								CHANNELS 3 Zrotation Yrotation Xrotation
								JOINT LeftFingerBase
								{
									OFFSET 0.000000 0.000000 0.000000
									CHANNELS 3 Zrotation Yrotation Xrotation
									JOINT LeftHandIndex1
									{
										OFFSET 4.291560 -0.000000 -0.000000
										CHANNELS 3 Zrotation Yrotation Xrotation
										End Site
										{
											OFFSET 0.000000 0.000000 0.000000
										}
									}
								}
								JOINT LThumb
								{
									OFFSET 0.000000 0.000000 0.000000
									CHANNELS 3 Zrotation Yrotation Xrotation
									End Site
									{
										OFFSET 0.000000 0.000000 0.000000
									}
								}
							}
						}
					}
				}
				JOINT RightShoulder
				{
					OFFSET 0.000000 0.000000 0.000000
					CHANNELS 3 Zrotation Yrotation Xrotation
					JOINT RightArm
					{
						OFFSET -18.819600 8.244300 -2.427900
						CHANNELS 3 Zrotation Yrotation Xrotation
						JOINT RightForeArm
						{
							OFFSET -31.451400 -0.000000 -0.000000
							CHANNELS 3 Zrotation Yrotation Xrotation
							JOINT RightHand
							{
								OFFSET -20.665020 -0.000000 -0.000000
								CHANNELS 3 Zrotation Yrotation Xrotation
								JOINT RightFingerBase
								{
									OFFSET 0.000000 0.000000 0.000000
									CHANNELS 3 Zrotation Yrotation Xrotation
									JOINT RightHandIndex1
									{
										OFFSET -3.735180 -0.000000 -0.000000
										CHANNELS 3 Zrotation Yrotation Xrotation
										End Site
										{
											OFFSET 0.000000 0.000000 0.000000
										}
									}
								}
								JOINT RThumb
								{
									OFFSET 0.000000 0.000000 0.000000
									CHANNELS 3 Zrotation Yrotation Xrotation
									End Site
									{
										OFFSET 0.000000 0.000000 0.000000
									}
								}
							}
						}
					}
				}
			}
		}
	}
}
MOTION
Frames:	7
Frame Time:	0.0333333
-62.004108 107.442216 -95.948538 176.051371 -10.792146 179.693875 -2.561238 1.764488 2.812939 -23.386004 -7.338088 -0.703862 -0.056051 6.099226 19.517262 0.687046 -13.857757 5.041177 0.211200 2.958900 8.164300 0.376011 -1.115016 0.598812 10.864079 0.081398 -28.049047 -5.047972 -13.901482 42.289982 1.729806 -10.407077 -3.422454 -0.097000 -2.008100 5.527900 -2.397838 0.840521 10.845186 1.438712 0.747140 2.657666 1.626679 0.212633 -3.996117 -11.209006 1.353008 -3.324194 5.563605 -5.667858 34.365868 3.647300 -5.982300 17.334100 -6.250846 -1.264466 -1.266747 -81.843398 -0.268815 25.000680 17.862880 -25.096739 -4.774557 -1.174847 -2.213060 4.568688 20.205878 22.456536 9.229100 -7.125000 0.000000 0.000000 -9.033400 56.056400 -2.464200 5.304609 1.283450 -0.865439 84.616032 -1.926895 2.429619 -15.314864 22.578504 -3.157219 0.342958 -0.060456 9.806866 -14.709897 4.322397 -1.160100 7.125000 0.000000 0.000000 8.714400 -25.500500 4.159300 
-62.064066 108.029790 -93.674982 176.649120 -10.006931 179.159434 -2.535480 1.710240 2.724810 -22.791059 -6.810280 -2.222047 -0.015177 6.273550 19.992821 0.644080 -13.318158 7.344168 0.363100 3.871100 10.714400 0.322166 -1.173360 0.663385 11.963043 -1.214843 -25.736448 -6.923408 -15.491871 49.407827 1.318076 -8.540882 -3.089818 -0.057100 -1.541400 4.239800 -1.909892 1.045871 10.439901 1.491032 1.071861 2.831543 1.336875 0.372266 -3.476872 -11.767318 1.129681 -4.376489 5.588498 -5.467438 34.263293 3.801500 -5.918500 17.586300 -6.362989 -1.171309 -1.281324 -82.010525 0.794969 20.894088 16.575141 -23.422059 -4.066588 -1.207882 -2.194523 6.302426 19.131848 22.535954 8.741400 -7.125000 0.000000 0.000000 -10.238800 55.921900 -2.764200 5.313301 1.254905 -0.842997 83.553683 -0.142727 4.972429 -15.881910 23.377557 -3.403899 0.359117 -0.051847 8.957897 -15.212931 4.407646 -1.223800 7.125000 0.000000 0.000000 8.322200 -25.410000 3.986000 
-62.076660 108.471072 -91.369050 177.413569 -9.458817 178.905043 -2.525646 1.639625 2.623164 -21.983953 -6.487133 -4.066679 0.041904 6.506848 20.612079 0.647578 -13.000457 9.298588 0.356300 3.834800 10.612300 0.314128 -1.234123 0.745793 13.054269 -2.210119 -22.238767 -8.178984 -16.278932 53.795152 0.976602 -6.870727 -1.632709 -0.000700 0.168400 -0.462700 -1.242779 1.183505 9.949536 1.438548 1.348799 2.648776 0.822823 0.550545 -3.499838 -11.833980 0.970737 -4.313660 5.927504 -5.617531 33.916475 3.976500 -5.931900 17.419200 -6.413829 -1.032681 -1.311227 -81.371607 2.648974 18.514149 15.531398 -22.106074 -3.551773 -1.214035 -2.166297 7.009524 18.410317 22.272290 8.310200 -7.125000 0.000000 0.000000 -10.882100 55.488700 -2.825800 5.289284 1.234893 -0.831944 82.934765 1.110379 7.240357 -16.475282 24.207899 -3.676088 0.359288 -0.042751 7.940713 -15.245190 4.558584 -1.267600 7.125000 0.000000 0.000000 8.290800 -25.257300 4.000400 
-61.998714 108.888366 -89.186034 177.749918 -9.374800 178.778318 -2.536570 1.592428 2.558710 -21.610036 -6.059486 -5.244595 -0.066347 6.318326 20.009336 0.667483 -12.675550 11.234234 0.578800 4.871800 13.543300 0.329979 -1.310323 0.825150 13.756615 -3.650659 -17.685431 -8.758535 -16.516452 55.757670 0.493757 -4.307619 0.178046 -0.000000 -0.001500 0.004100 -1.139276 1.350666 9.237312 1.359667 1.589203 2.506701 0.590432 0.705761 -3.359993 -11.764898 0.658131 -4.389050 5.933717 -5.853262 33.516679 3.943600 -5.954000 17.246000 -6.439106 -0.906486 -1.341227 -80.862909 4.536953 16.633397 14.721936 -21.101918 -3.173662 -1.268568 -2.201621 7.803218 18.333397 23.012056 8.528500 -7.125000 0.000000 0.000000 -11.316200 56.271700 -3.156500 5.250130 1.181492 -0.835882 82.386113 2.044091 9.207293 -17.528718 25.645853 -4.172763 0.357416 -0.021845 7.024848 -15.267325 4.509176 -1.251100 7.125000 0.000000 0.000000 8.280900 -25.323300 3.982700 
-61.754694 109.135986 -86.809350 178.702241 -9.111683 178.552493 -2.541402 1.516993 2.459117 -20.426408 -5.756386 -7.097601 -0.054149 6.466680 20.344815 0.729729 -12.495387 12.894265 0.374200 3.929100 10.877400 0.357079 -1.362741 0.909233 15.555577 -4.284546 -12.298655 -8.560378 -16.204213 55.061176 -0.019514 -1.282251 2.435857 -0.335800 3.724000 -10.301600 -0.624527 1.566527 8.862163 1.438469 1.933922 2.389887 0.404621 0.905138 -3.338017 -11.531784 0.316645 -4.768379 5.836786 -6.138243 33.251193 3.817500 -5.976300 17.247800 -6.436527 -0.814918 -1.368760 -80.355244 6.001647 14.933777 14.109494 -20.336440 -2.903614 -1.287256 -2.146849 8.814416 17.994456 22.605501 8.228200 -7.125000 0.000000 0.000000 -11.474100 55.757500 -3.057700 5.231080 1.146490 -0.832948 81.764009 3.507358 11.088838 -18.352772 26.731955 -4.573898 0.372905 -0.010450 5.751724 -15.786150 4.628176 -1.328700 7.125000 0.000000 0.000000 7.875800 -25.195400 3.807900 
-61.538850 109.146780 -84.367920 179.712127 -8.723266 178.487163 -2.527504 1.416652 2.317880 -19.171850 -5.665077 -9.292410 0.044419 6.819643 21.261479 0.791137 -13.039354 13.683268 0.180900 2.739600 7.554600 0.390801 -1.383090 1.001568 17.676692 -4.404193 -6.419897 -7.734699 -15.436979 52.125654 -0.473312 1.763705 4.953266 -0.908700 6.074400 -17.000600 0.341516 2.071450 8.347508 1.456108 2.719112 2.225209 -0.189606 1.313773 -3.312513 -11.947086 -0.360752 -5.089324 6.560392 -7.173785 33.186104 4.135300 -6.355300 17.586700 -6.443703 -0.684289 -1.388174 -79.763279 6.825282 13.609066 13.487729 -19.511347 -2.632621 -1.320098 -2.177638 9.851888 17.572045 23.397942 8.276700 -7.125000 0.000000 0.000000 -12.343500 56.510200 -3.520700 5.187787 1.200783 -0.819245 81.551510 4.249660 11.262129 -19.606432 28.359299 -5.211950 0.378190 -0.012358 4.940370 -16.164181 5.186362 -1.528800 7.125000 0.000000 0.000000 7.563300 -24.604000 3.759000 
-61.296624 109.082628 -81.916896 -179.477710 -8.074600 178.439423 -2.526742 1.322065 2.166300 -18.111468 -6.131399 -11.053120 0.099034 7.064750 21.850753 0.833567 -12.971173 13.616322 0.034000 1.189700 3.271000 0.417121 -1.407162 1.103004 19.877063 -3.830591 -0.540520 -6.526736 -14.312968 47.570401 -0.645466 2.954584 7.404028 -0.989800 6.332100 -17.751000 1.048153 2.577453 7.827722 1.495998 3.466461 1.994083 -0.589969 1.711503 -3.399866 -11.771851 -0.538148 -5.230505 6.560441 -7.485264 33.326651 4.065200 -6.460100 17.789900 -6.416316 -0.614015 -1.417080 -79.544248 7.820010 12.011881 13.233863 -19.217326 -2.524100 -1.397827 -2.138159 10.070718 18.439473 23.143421 8.636500 -7.125000 0.000000 0.000000 -11.218500 56.424200 -3.170400 5.150438 1.186206 -0.828938 81.268594 4.899048 11.522235 -20.688035 29.708000 -5.787518 0.376288 -0.006504 4.124499 -16.212947 5.462509 -1.615000 7.125000 0.000000 0.000000 7.517100 -24.318100 3.785800 
